<svg version="1.1" id="Layer_1" xmlns="http://www.w3.org/2000/svg" xmlns:xlink="http://www.w3.org/1999/xlink" x="0px" y="0px"
	 width="100%" viewBox="0 0 1824 1997" enable-background="new 0 0 1824 1997" xml:space="preserve">
<path fill="#FFFFFF" opacity="1.000000" stroke="none" 
	d="
M0.999996,966.000000 
	C1.000000,644.410950 1.000000,322.821930 1.000000,1.000000 
	C242.030869,1.000000 483.061829,1.000000 724.344849,1.385051 
	C718.507690,2.179499 712.366821,2.223279 706.340454,3.076389 
	C694.725098,4.720684 683.072571,6.351863 671.617981,8.831451 
	C646.925171,14.176695 623.849121,23.851534 602.032104,36.508488 
	C584.698303,46.564510 568.459778,58.151676 554.224854,72.336708 
	C547.415222,79.122452 540.753113,86.075447 534.339966,93.235519 
	C522.522583,106.429260 512.562256,121.011665 504.219391,136.587738 
	C494.829315,154.119003 486.912140,172.295837 481.659485,191.601212 
	C476.137756,211.895447 472.778320,232.494965 472.108673,253.471893 
	C471.802917,263.048737 472.172394,272.711975 473.120331,282.248108 
	C474.396271,295.084106 475.718994,308.011536 478.463684,320.584930 
	C483.722900,344.677185 492.593018,367.499329 504.514648,389.198578 
	C515.876221,409.878540 529.965027,428.474579 546.168640,445.432953 
	C553.762451,453.380463 562.497131,460.266663 570.934265,467.373322 
	C585.233154,479.417511 601.044678,489.340271 617.913025,497.162445 
	C632.016113,503.702301 646.753296,509.054962 661.558960,513.856262 
	C682.201172,520.550293 703.712891,522.929138 725.312622,523.886536 
	C733.545959,524.251465 741.854248,523.570984 750.095703,522.940125 
	C760.068604,522.176819 770.141174,521.667847 779.934875,519.807861 
	C809.053650,514.277710 836.725525,504.571045 862.591187,489.842896 
	C893.583862,472.195374 919.909119,449.161438 941.409180,420.860718 
	C955.226257,402.673218 966.448303,382.820404 975.156128,361.581085 
	C985.635437,336.020844 992.196777,309.449921 993.736206,281.994171 
	C994.871704,261.743195 994.571045,241.380035 991.170837,221.120987 
	C987.402283,198.666779 981.315674,176.998489 971.989685,156.311554 
	C955.368713,119.442856 931.927795,87.715935 900.545654,61.858486 
	C884.822388,48.903309 868.100037,37.534470 849.887878,28.686024 
	C836.639587,22.249241 822.710632,16.943611 808.650757,12.511580 
	C788.669617,6.213021 768.109497,2.275534 747.010437,1.959375 
	C745.335876,1.934282 743.669922,1.333330 742.000000,0.999999 
	C1102.937012,1.000000 1463.873901,1.000000 1825.000000,1.000000 
	C1825.000000,417.364227 1825.000000,833.728516 1824.607422,1250.354004 
	C1823.479248,1238.114624 1823.041016,1225.587524 1821.932007,1213.120239 
	C1820.585205,1197.980835 1819.123413,1182.824341 1816.879395,1167.799683 
	C1814.579468,1152.400146 1811.704346,1137.054932 1808.317871,1121.855957 
	C1801.626221,1091.822632 1792.654053,1062.457275 1780.798340,1033.644775 
	C1777.291992,1025.449097 1774.011230,1017.523499 1770.315918,1009.796143 
	C1756.974976,981.899048 1741.954834,954.975708 1723.040771,930.401917 
	C1715.901001,921.125610 1708.434814,912.100464 1700.978638,902.647583 
	C1688.794556,889.958191 1676.948608,877.378479 1664.618652,865.292542 
	C1658.579712,859.373108 1651.641479,854.371094 1644.969727,848.638184 
	C1623.634033,831.212219 1600.895630,816.392700 1576.926758,803.536682 
	C1554.153809,791.322021 1530.397217,781.250061 1505.952637,772.441406 
	C1511.993774,750.243469 1515.996826,728.037781 1517.785034,705.525818 
	C1518.695679,694.061584 1518.337891,682.449219 1517.847900,670.933838 
	C1517.309570,658.278198 1516.824219,645.513184 1514.751465,633.056213 
	C1511.972412,616.355164 1508.364624,599.720154 1503.901001,583.387939 
	C1496.839722,557.550842 1485.775146,533.317566 1472.040039,510.294098 
	C1459.554443,489.365082 1445.217773,469.774689 1428.387085,452.215820 
	C1418.120117,441.504395 1406.726929,431.830078 1395.463257,422.126617 
	C1380.282104,409.048523 1363.545532,398.100647 1345.937134,388.611450 
	C1325.601196,377.652313 1304.440430,368.614105 1282.241699,361.926331 
	C1256.545166,354.184692 1230.307251,349.516663 1203.611938,348.247742 
	C1183.478149,347.290680 1163.318115,348.047150 1143.191528,350.832275 
	C1123.364014,353.576019 1103.936401,357.679993 1084.909180,363.679077 
	C1063.962769,370.283325 1043.932617,379.007904 1024.650635,389.650116 
	C1002.564941,401.839752 982.083191,416.239410 963.564087,433.213409 
	C941.496704,453.439697 921.994995,475.950989 905.992188,501.442047 
	C892.621521,522.740540 881.539917,545.064148 873.013855,568.701599 
	C862.052002,599.092041 856.001953,630.531677 854.262695,662.671326 
	C853.395081,678.703796 854.516113,694.863708 855.167725,710.948547 
	C855.418030,717.127380 856.800415,723.267944 857.781433,729.407715 
	C859.093262,737.617798 860.516479,745.810181 861.544800,753.858276 
	C845.044434,748.478455 828.621399,743.950684 812.801208,737.857727 
	C789.366455,728.832336 766.128479,719.207336 743.244080,708.869385 
	C725.478516,700.843811 708.364136,691.372070 690.995239,682.475037 
	C683.633240,678.703857 676.360474,674.758423 668.886169,670.583374 
	C647.891663,657.863159 626.967651,645.600708 606.246948,633.003784 
	C578.711487,616.264099 551.445862,599.079224 523.856018,582.430847 
	C499.599152,567.793701 475.380585,553.036743 450.528992,539.460632 
	C432.672791,529.705994 414.045197,521.241333 395.326721,513.215820 
	C367.339478,501.216309 338.143921,493.242218 307.640045,491.097443 
	C292.285217,490.017792 276.875488,491.089172 261.829254,494.230377 
	C242.107925,498.347565 223.462326,505.776245 206.330719,516.398865 
	C180.444992,532.449524 158.635391,553.302429 139.823746,577.018250 
	C127.083443,593.080017 115.638306,610.220337 104.312820,627.340576 
	C88.552513,651.164673 75.197617,676.360291 63.210052,702.307739 
	C49.546387,731.883118 37.810043,762.202393 29.184984,793.577515 
	C22.903492,816.427490 17.676971,839.617493 13.142609,862.882507 
	C9.242729,882.892212 6.535650,903.169617 4.167474,923.429932 
	C2.637098,936.522705 2.686615,949.799011 1.962815,962.989441 
	C1.906950,964.007507 1.333089,964.997131 0.999996,966.000000 
M316.304382,361.926422 
	C319.299835,359.344788 322.765564,357.142853 325.209442,354.115906 
	C335.849091,340.937775 340.870636,326.263367 338.147705,308.927856 
	C334.461182,285.457886 315.231995,266.559204 290.636475,264.113403 
	C261.445679,261.210602 235.704483,281.293304 231.882889,309.656555 
	C228.899567,331.798309 236.685013,349.029358 254.408722,362.083008 
	C264.708923,369.669220 276.444000,371.604492 288.994354,371.103333 
	C298.874512,370.708832 307.549927,367.527740 316.304382,361.926422 
z"/>
<path fill="#1459A0" opacity="1.000000" stroke="none" 
	d="
M1780.833862,1034.005859 
	C1792.654053,1062.457275 1801.626221,1091.822632 1808.317871,1121.855957 
	C1811.704346,1137.054932 1814.579468,1152.400146 1816.879395,1167.799683 
	C1819.123413,1182.824341 1820.585205,1197.980835 1821.932007,1213.120239 
	C1823.041016,1225.587524 1823.479248,1238.114624 1824.607422,1250.807617 
	C1825.000000,1265.354248 1825.000000,1279.708496 1824.607422,1294.723755 
	C1823.810547,1303.805420 1823.655640,1312.246948 1822.950684,1320.642212 
	C1821.454590,1338.455078 1820.012573,1356.284058 1817.904541,1374.030151 
	C1816.040771,1389.720581 1813.931885,1405.433594 1810.823364,1420.914062 
	C1804.124756,1454.272583 1796.361572,1487.434204 1784.973999,1519.538940 
	C1776.431274,1543.623291 1767.583252,1567.686157 1757.157227,1590.991821 
	C1746.361450,1615.124023 1734.340332,1638.808228 1721.309814,1661.813110 
	C1707.690186,1685.858398 1692.131470,1708.801025 1674.387329,1730.113525 
	C1661.901489,1745.110596 1649.824341,1760.509888 1636.501221,1774.733276 
	C1616.607422,1795.971680 1595.642578,1816.208740 1572.481079,1833.953125 
	C1556.063599,1846.531006 1539.690063,1859.220337 1522.656982,1870.928711 
	C1491.531738,1892.323853 1458.657227,1910.822021 1424.002441,1925.862305 
	C1400.850830,1935.910156 1377.486328,1945.675171 1353.616455,1953.803223 
	C1328.679688,1962.294434 1303.161133,1969.206787 1277.634521,1975.792236 
	C1259.738525,1980.409180 1241.482544,1983.798340 1223.239014,1986.849731 
	C1207.137451,1989.542969 1190.860107,1991.302368 1174.606323,1992.935669 
	C1157.767578,1994.627808 1140.862671,1995.657227 1123.990967,1997.029907 
	C1122.643311,1997.139648 1121.329468,1997.666748 1120.000000,1998.000000 
	C1091.645752,1998.000000 1063.291504,1998.000000 1034.276367,1997.607422 
	C1023.364502,1996.807739 1013.078918,1996.794312 1002.870483,1995.899902 
	C988.041443,1994.600708 973.258667,1992.745361 958.473877,1990.978638 
	C945.339172,1989.409180 932.133484,1988.168579 919.128174,1985.839233 
	C895.319397,1981.575073 871.417725,1977.498535 847.955139,1971.718384 
	C819.536621,1964.717285 791.214661,1956.994995 763.435669,1947.815186 
	C732.890747,1937.721191 702.861816,1925.994629 672.899963,1914.235352 
	C656.329651,1907.731934 640.356934,1899.705933 624.497192,1892.228027 
	C625.620605,1891.709351 626.422546,1891.414062 627.093872,1890.935425 
	C648.565857,1875.628906 670.034058,1860.317017 691.484680,1844.980591 
	C722.779785,1822.605713 754.045898,1800.190186 785.352905,1777.832031 
	C809.916260,1760.289917 834.546570,1742.841431 859.104065,1725.291260 
	C891.215759,1702.342407 923.284546,1679.333618 955.373169,1656.352539 
	C977.482666,1640.518188 999.550964,1624.625732 1021.738464,1608.901245 
	C1026.816406,1605.302490 1032.307983,1602.287231 1037.700806,1599.455078 
	C1037.792480,1602.505981 1037.792480,1605.105347 1037.792480,1607.989014 
	C1041.408813,1607.989014 1044.386230,1608.134399 1047.341919,1607.942505 
	C1049.661865,1607.791870 1051.082031,1606.764038 1051.060913,1603.916382 
	C1050.873779,1578.636230 1050.823120,1553.355347 1051.068848,1527.947754 
	C1053.374146,1526.590942 1055.415894,1525.462646 1057.301025,1524.115479 
	C1088.698120,1501.678467 1120.060425,1479.192749 1151.462158,1456.762207 
	C1175.993774,1439.239258 1200.592163,1421.809570 1225.093018,1404.243652 
	C1227.952271,1402.193604 1230.378662,1399.539917 1233.403809,1397.096924 
	C1234.664062,1396.024902 1235.526367,1395.021851 1236.750000,1394.015869 
	C1239.170410,1393.064819 1241.438232,1392.411499 1243.256714,1391.123657 
	C1267.579468,1373.899414 1291.860474,1356.616089 1316.108276,1339.286255 
	C1335.773926,1325.230957 1355.325073,1311.014771 1375.054321,1297.049683 
	C1379.834229,1293.666260 1385.115601,1290.991089 1390.278809,1288.448730 
	C1390.391113,1324.814209 1390.391113,1360.721313 1390.391113,1396.637451 
	C1409.183105,1396.637451 1427.377441,1396.637451 1445.842285,1396.637451 
	C1445.842285,1393.299561 1445.836426,1390.323853 1445.843140,1387.348267 
	C1445.913330,1355.899170 1445.985474,1324.450073 1446.407349,1292.963501 
	C1448.302124,1291.994629 1449.837158,1291.047363 1451.392822,1290.134766 
	C1456.600586,1287.079834 1461.815674,1284.037476 1467.349609,1281.226074 
	C1478.762817,1360.780762 1551.838745,1399.880493 1599.581543,1396.496460 
	C1599.581543,1378.445557 1599.581543,1360.378784 1599.581543,1343.752808 
	C1588.894897,1340.789307 1578.263062,1339.244507 1568.867920,1334.976807 
	C1538.700439,1321.273315 1522.749146,1297.351440 1522.093750,1264.048706 
	C1521.628418,1240.399902 1522.006104,1216.734253 1522.007446,1193.076172 
	C1522.007568,1191.314331 1522.007446,1189.552612 1522.007446,1187.349365 
	C1547.965332,1187.349365 1573.232544,1187.349365 1599.058228,1187.349365 
	C1599.058228,1178.270874 1599.058228,1169.636108 1599.424316,1160.996094 
	C1601.669312,1160.013184 1603.696899,1159.244507 1605.404663,1158.027344 
	C1635.995850,1136.223511 1666.552002,1114.370117 1697.108154,1092.517212 
	C1719.316650,1076.634277 1741.471802,1060.676025 1763.747314,1044.887695 
	C1769.249634,1040.987793 1775.128296,1037.618896 1780.833862,1034.005859 
M1428.618530,1596.443970 
	C1399.978638,1601.332275 1371.415039,1578.789429 1374.392212,1552.985474 
	C1406.836914,1552.985474 1439.356934,1552.985474 1472.888794,1552.985474 
	C1471.865845,1544.223877 1471.807617,1535.955688 1469.842651,1528.168335 
	C1457.876953,1480.747192 1407.831055,1474.091309 1380.674438,1498.509033 
	C1362.514771,1514.837280 1356.374634,1535.873657 1360.652466,1559.794556 
	C1366.698730,1593.603149 1393.619019,1613.786011 1427.545410,1609.901489 
	C1445.855103,1607.805054 1459.245239,1597.592773 1470.239990,1583.078369 
	C1466.730713,1580.320435 1463.624756,1577.879517 1460.240601,1575.219849 
	C1451.859619,1585.235718 1442.589233,1593.639771 1428.618530,1596.443970 
M1096.040405,1502.536621 
	C1080.444458,1519.416626 1074.015381,1538.822021 1078.962036,1561.747314 
	C1086.347900,1595.978149 1119.067871,1615.806396 1149.962891,1609.775879 
	C1187.830200,1602.384521 1206.832275,1571.066406 1200.088257,1533.645264 
	C1195.229614,1506.684814 1172.851318,1486.104248 1141.940186,1485.000244 
	C1124.466675,1484.376099 1109.295654,1490.021973 1096.040405,1502.536621 
M1506.958740,1630.780273 
	C1502.639282,1629.184814 1498.319946,1627.589478 1493.562500,1625.832275 
	C1491.897339,1629.444946 1490.211060,1633.103760 1488.560181,1636.685425 
	C1509.178345,1649.753296 1532.114624,1647.839111 1544.994507,1626.175171 
	C1546.777954,1623.175537 1548.663818,1620.199341 1550.078735,1617.023682 
	C1563.130859,1587.724731 1576.103149,1558.390259 1589.069824,1529.053345 
	C1595.034790,1515.557373 1600.935181,1502.033081 1607.097778,1487.991211 
	C1604.062378,1487.991211 1601.557861,1488.320679 1599.174683,1487.922729 
	C1594.173950,1487.088013 1591.981812,1489.333252 1590.082397,1493.812622 
	C1577.561890,1523.341675 1564.740356,1552.743164 1551.983643,1582.171997 
	C1551.118408,1584.168335 1549.981567,1586.047119 1548.619263,1588.653564 
	C1546.868530,1585.025879 1545.554199,1582.347046 1544.277710,1579.650146 
	C1530.410278,1550.354248 1516.574463,1521.043213 1502.613647,1491.791992 
	C1501.886475,1490.268799 1500.218994,1488.342529 1498.795532,1488.165894 
	C1494.800659,1487.670532 1490.704346,1487.993164 1486.110352,1487.993164 
	C1487.704468,1491.409790 1488.930664,1494.114990 1490.220093,1496.789795 
	C1506.965454,1531.523682 1523.731934,1566.247559 1540.426392,1601.005981 
	C1541.085571,1602.378662 1541.858643,1604.538086 1541.258301,1605.539307 
	C1536.923706,1612.768433 1533.035889,1620.508057 1527.444458,1626.668091 
	C1522.558838,1632.050659 1515.200195,1633.454102 1506.958740,1630.780273 
M1318.165649,1497.322144 
	C1290.790039,1477.385376 1265.690796,1481.167236 1242.014282,1505.326172 
	C1242.014282,1499.208618 1242.014282,1493.809082 1242.014282,1488.384033 
	C1237.683716,1488.384033 1233.826660,1488.384033 1230.176270,1488.384033 
	C1230.176270,1528.342896 1230.176270,1567.910767 1230.176270,1607.412109 
	C1234.573608,1607.412109 1238.611572,1607.412109 1242.843994,1607.412109 
	C1242.843994,1604.987671 1242.839722,1602.994751 1242.844604,1601.001709 
	C1242.897461,1579.681641 1242.548828,1558.350098 1243.153931,1537.045776 
	C1243.526855,1523.917358 1249.546997,1513.056274 1260.312134,1505.221313 
	C1278.489746,1491.991455 1305.049438,1496.966431 1315.129517,1515.415161 
	C1319.116699,1522.712646 1320.351685,1530.710938 1320.402954,1538.856445 
	C1320.534058,1559.678101 1320.438354,1580.501099 1320.459595,1601.323608 
	C1320.461792,1603.412598 1320.642334,1605.501343 1320.734375,1607.467529 
	C1325.397339,1607.467529 1329.466675,1607.467529 1333.033203,1607.467529 
	C1333.033203,1582.000732 1333.085815,1556.913330 1333.011841,1531.826294 
	C1332.972656,1518.538086 1327.989380,1507.246094 1318.165649,1497.322144 
z"/>
<path fill="#FFFFFF" opacity="1.000000" stroke="none" 
	d="
M624.114868,1892.366089 
	C640.356934,1899.705933 656.329651,1907.731934 672.899963,1914.235352 
	C702.861816,1925.994629 732.890747,1937.721191 763.435669,1947.815186 
	C791.214661,1956.994995 819.536621,1964.717285 847.955139,1971.718384 
	C871.417725,1977.498535 895.319397,1981.575073 919.128174,1985.839233 
	C932.133484,1988.168579 945.339172,1989.409180 958.473877,1990.978638 
	C973.258667,1992.745361 988.041443,1994.600708 1002.870483,1995.899902 
	C1013.078918,1996.794312 1023.364502,1996.807739 1033.807861,1997.607422 
	C689.741638,1998.000000 345.483246,1998.000000 1.000000,1998.000000 
	C1.000000,1672.645752 1.000000,1347.291504 1.385890,1021.670227 
	C2.180477,1031.296631 2.456187,1041.197998 3.038715,1051.081177 
	C3.530716,1059.428467 4.152390,1067.781250 5.122023,1076.084229 
	C6.558497,1088.384766 8.183667,1100.669434 10.053062,1112.911255 
	C11.389763,1121.664795 13.258670,1130.336914 14.939422,1139.475586 
	C17.366262,1152.367676 19.071926,1165.004395 22.262138,1177.254639 
	C28.760578,1202.207886 35.360588,1227.176880 43.234821,1251.717163 
	C50.413826,1274.090698 59.118256,1295.988647 67.563660,1317.937012 
	C72.691315,1331.263184 78.190552,1344.481812 84.272751,1357.395630 
	C91.124695,1371.943726 98.819412,1386.094849 106.128510,1400.805664 
	C110.598335,1409.493408 114.875900,1417.916992 119.619728,1426.069336 
	C129.668930,1443.339111 139.287201,1460.914429 150.314545,1477.547363 
	C166.222504,1501.541382 182.922714,1525.030151 199.871658,1548.307129 
	C210.533386,1562.949463 222.130417,1576.922607 233.574493,1590.978882 
	C240.316452,1599.259888 247.442261,1607.241821 254.640213,1615.134888 
	C265.968994,1627.558228 277.504242,1639.793213 289.085144,1652.411621 
	C306.189758,1669.017578 323.058136,1685.429199 340.173340,1701.579224 
	C349.752960,1710.618774 359.470825,1719.551514 369.608276,1727.950806 
	C386.085907,1741.603271 402.889832,1754.866455 419.702698,1768.107666 
	C425.541626,1772.706299 431.815979,1776.751953 438.034576,1781.367188 
	C448.770660,1789.161133 459.363617,1796.638184 470.113739,1804.423462 
	C470.975220,1805.115234 471.700958,1805.464233 472.380585,1805.887329 
	C478.766602,1809.863770 485.144714,1813.853027 491.722168,1818.095703 
	C496.879822,1821.666748 501.726807,1825.168213 506.826202,1828.252441 
	C515.786255,1833.672119 524.900696,1838.836426 534.092529,1844.426025 
	C558.899902,1858.176392 583.534851,1871.665039 608.255859,1884.994141 
	C613.378052,1887.755859 618.820129,1889.924316 624.114868,1892.366089 
z"/>
<path fill="#0996D4" opacity="1.000000" stroke="none" 
	d="
M14.890106,1139.045410 
	C13.258670,1130.336914 11.389763,1121.664795 10.053062,1112.911255 
	C8.183667,1100.669434 6.558497,1088.384766 5.122023,1076.084229 
	C4.152390,1067.781250 3.530716,1059.428467 3.038715,1051.081177 
	C2.456187,1041.197998 2.180477,1031.296631 1.385890,1021.201599 
	C1.000000,1002.979126 1.000000,984.958191 0.999996,966.468628 
	C1.333089,964.997131 1.906950,964.007507 1.962815,962.989441 
	C2.686615,949.799011 2.637098,936.522705 4.167474,923.429932 
	C6.535650,903.169617 9.242729,882.892212 13.142609,862.882507 
	C17.676971,839.617493 22.903492,816.427490 29.184984,793.577515 
	C37.810043,762.202393 49.546387,731.883118 63.210052,702.307739 
	C75.197617,676.360291 88.552513,651.164673 104.312820,627.340576 
	C115.638306,610.220337 127.083443,593.080017 139.823746,577.018250 
	C158.635391,553.302429 180.444992,532.449524 206.330719,516.398865 
	C223.462326,505.776245 242.107925,498.347565 261.829254,494.230377 
	C276.875488,491.089172 292.285217,490.017792 307.640045,491.097443 
	C338.143921,493.242218 367.339478,501.216309 395.326721,513.215820 
	C414.045197,521.241333 432.672791,529.705994 450.528992,539.460632 
	C475.380585,553.036743 499.599152,567.793701 523.856018,582.430847 
	C551.445862,599.079224 578.711487,616.264099 606.246948,633.003784 
	C626.967651,645.600708 647.891663,657.863159 668.739136,670.896851 
	C668.188232,672.126343 667.707886,672.851929 667.046387,673.323669 
	C638.290466,693.829956 609.516846,714.311523 580.749023,734.801086 
	C556.437195,752.116882 532.109375,769.410278 507.825500,786.765259 
	C475.988159,809.518127 444.204681,832.346313 412.364746,855.095520 
	C388.214172,872.350891 363.986389,889.498108 339.838440,906.757019 
	C307.866669,929.607910 275.957886,952.546936 243.985992,975.397644 
	C222.266617,990.920776 200.462082,1006.324585 178.737289,1021.840149 
	C147.299286,1044.292969 115.901382,1066.802124 84.481781,1089.280640 
	C61.288284,1105.874146 38.087578,1122.457520 14.890106,1139.045410 
z"/>
<path fill="#089EDA" opacity="1.000000" stroke="none" 
	d="
M741.532410,0.999999 
	C743.669922,1.333330 745.335876,1.934282 747.010437,1.959375 
	C768.109497,2.275534 788.669617,6.213021 808.650757,12.511580 
	C822.710632,16.943611 836.639587,22.249241 849.887878,28.686024 
	C868.100037,37.534470 884.822388,48.903309 900.545654,61.858486 
	C931.927795,87.715935 955.368713,119.442856 971.989685,156.311554 
	C981.315674,176.998489 987.402283,198.666779 991.170837,221.120987 
	C994.571045,241.380035 994.871704,261.743195 993.736206,281.994171 
	C992.196777,309.449921 985.635437,336.020844 975.156128,361.581085 
	C966.448303,382.820404 955.226257,402.673218 941.409180,420.860718 
	C919.909119,449.161438 893.583862,472.195374 862.591187,489.842896 
	C836.725525,504.571045 809.053650,514.277710 779.934875,519.807861 
	C770.141174,521.667847 760.068604,522.176819 750.095703,522.940125 
	C741.854248,523.570984 733.545959,524.251465 725.312622,523.886536 
	C703.712891,522.929138 682.201172,520.550293 661.558960,513.856262 
	C646.753296,509.054962 632.016113,503.702301 617.913025,497.162445 
	C601.044678,489.340271 585.233154,479.417511 570.934265,467.373322 
	C562.497131,460.266663 553.762451,453.380463 546.168640,445.432953 
	C529.965027,428.474579 515.876221,409.878540 504.514648,389.198578 
	C492.593018,367.499329 483.722900,344.677185 478.463684,320.584930 
	C475.718994,308.011536 474.396271,295.084106 473.120331,282.248108 
	C472.172394,272.711975 471.802917,263.048737 472.108673,253.471893 
	C472.778320,232.494965 476.137756,211.895447 481.659485,191.601212 
	C486.912140,172.295837 494.829315,154.119003 504.219391,136.587738 
	C512.562256,121.011665 522.522583,106.429260 534.339966,93.235519 
	C540.753113,86.075447 547.415222,79.122452 554.224854,72.336708 
	C568.459778,58.151676 584.698303,46.564510 602.032104,36.508488 
	C623.849121,23.851534 646.925171,14.176695 671.617981,8.831451 
	C683.072571,6.351863 694.725098,4.720684 706.340454,3.076389 
	C712.366821,2.223279 718.507690,2.179499 724.798462,1.385051 
	C730.354919,1.000000 735.709900,1.000000 741.532410,0.999999 
z"/>
<path fill="#FFFFFF" opacity="1.000000" stroke="none" 
	d="
M1120.468628,1998.000000 
	C1121.329468,1997.666748 1122.643311,1997.139648 1123.990967,1997.029907 
	C1140.862671,1995.657227 1157.767578,1994.627808 1174.606323,1992.935669 
	C1190.860107,1991.302368 1207.137451,1989.542969 1223.239014,1986.849731 
	C1241.482544,1983.798340 1259.738525,1980.409180 1277.634521,1975.792236 
	C1303.161133,1969.206787 1328.679688,1962.294434 1353.616455,1953.803223 
	C1377.486328,1945.675171 1400.850830,1935.910156 1424.002441,1925.862305 
	C1458.657227,1910.822021 1491.531738,1892.323853 1522.656982,1870.928711 
	C1539.690063,1859.220337 1556.063599,1846.531006 1572.481079,1833.953125 
	C1595.642578,1816.208740 1616.607422,1795.971680 1636.501221,1774.733276 
	C1649.824341,1760.509888 1661.901489,1745.110596 1674.387329,1730.113525 
	C1692.131470,1708.801025 1707.690186,1685.858398 1721.309814,1661.813110 
	C1734.340332,1638.808228 1746.361450,1615.124023 1757.157227,1590.991821 
	C1767.583252,1567.686157 1776.431274,1543.623291 1784.973999,1519.538940 
	C1796.361572,1487.434204 1804.124756,1454.272583 1810.823364,1420.914062 
	C1813.931885,1405.433594 1816.040771,1389.720581 1817.904541,1374.030151 
	C1820.012573,1356.284058 1821.454590,1338.455078 1822.950684,1320.642212 
	C1823.655640,1312.246948 1823.810547,1303.805420 1824.607422,1295.192383 
	C1825.000000,1529.260498 1825.000000,1763.521118 1825.000000,1998.000000 
	C1590.312500,1998.000000 1355.624878,1998.000000 1120.468628,1998.000000 
z"/>
<path fill="#9A3D9F" opacity="1.000000" stroke="none" 
	d="
M861.891846,754.010132 
	C860.516479,745.810181 859.093262,737.617798 857.781433,729.407715 
	C856.800415,723.267944 855.418030,717.127380 855.167725,710.948547 
	C854.516113,694.863708 853.395081,678.703796 854.262695,662.671326 
	C856.001953,630.531677 862.052002,599.092041 873.013855,568.701599 
	C881.539917,545.064148 892.621521,522.740540 905.992188,501.442047 
	C921.994995,475.950989 941.496704,453.439697 963.564087,433.213409 
	C982.083191,416.239410 1002.564941,401.839752 1024.650635,389.650116 
	C1043.932617,379.007904 1063.962769,370.283325 1084.909180,363.679077 
	C1103.936401,357.679993 1123.364014,353.576019 1143.191528,350.832275 
	C1163.318115,348.047150 1183.478149,347.290680 1203.611938,348.247742 
	C1230.307251,349.516663 1256.545166,354.184692 1282.241699,361.926331 
	C1304.440430,368.614105 1325.601196,377.652313 1345.937134,388.611450 
	C1363.545532,398.100647 1380.282104,409.048523 1395.463257,422.126617 
	C1406.726929,431.830078 1418.120117,441.504395 1428.387085,452.215820 
	C1445.217773,469.774689 1459.554443,489.365082 1472.040039,510.294098 
	C1485.775146,533.317566 1496.839722,557.550842 1503.901001,583.387939 
	C1508.364624,599.720154 1511.972412,616.355164 1514.751465,633.056213 
	C1516.824219,645.513184 1517.309570,658.278198 1517.847900,670.933838 
	C1518.337891,682.449219 1518.695679,694.061584 1517.785034,705.525818 
	C1515.996826,728.037781 1511.993774,750.243469 1505.663086,772.663574 
	C1504.883057,774.508118 1504.307007,775.705811 1503.920044,776.961731 
	C1496.283691,801.752136 1486.149658,825.488220 1472.956787,847.808777 
	C1456.952393,874.885925 1438.130615,899.881104 1414.508911,920.816162 
	C1401.026001,932.765503 1387.242188,944.551941 1372.531006,954.900635 
	C1345.424683,973.968628 1315.619873,987.852905 1283.870239,997.598389 
	C1261.667114,1004.413696 1239.013794,1008.682190 1215.543091,1011.101562 
	C1205.391113,1011.708313 1195.667969,1012.895264 1185.946899,1012.879089 
	C1175.891724,1012.862427 1165.788452,1012.096619 1155.796509,1010.902893 
	C1141.920044,1009.244995 1127.985229,1007.559448 1114.328857,1004.682251 
	C1085.104004,998.524902 1057.312866,988.170593 1030.993042,973.966553 
	C1026.931519,971.774719 1022.787903,969.735046 1018.398560,967.406494 
	C1017.180664,966.514099 1016.295715,965.755554 1015.304932,965.178772 
	C994.992371,953.352661 976.106445,939.548279 959.554016,922.875061 
	C946.624573,909.851379 933.548035,896.762207 922.334045,882.307861 
	C911.592224,868.462219 903.166626,852.819641 893.634277,837.643616 
	C886.036865,819.837097 878.129578,802.510437 871.175293,784.809326 
	C867.267517,774.862488 864.934387,764.296936 861.891846,754.010132 
z"/>
<path fill="#0C88C7" opacity="1.000000" stroke="none" 
	d="
M861.544800,753.858276 
	C864.934387,764.296936 867.267517,774.862488 871.175293,784.809326 
	C878.129578,802.510437 886.036865,819.837097 893.270386,837.654175 
	C890.928345,838.919373 888.639526,839.539062 886.828369,840.829346 
	C864.147034,856.986938 841.557678,873.273682 818.898376,889.462402 
	C797.183289,904.976440 775.391541,920.383240 753.673401,935.893066 
	C722.244629,958.337708 690.845398,980.823730 659.446167,1003.309753 
	C638.960876,1017.979919 618.539490,1032.740112 597.977783,1047.302246 
	C595.110413,1049.333130 591.602966,1050.460205 588.294800,1051.545898 
	C588.197754,1037.211914 588.197754,1023.337891 588.197754,1008.548035 
	C586.872620,1009.668396 586.370728,1010.034424 585.936584,1010.468323 
	C568.982361,1027.413330 551.993896,1044.324707 535.164978,1061.393433 
	C533.866882,1062.709961 533.146179,1065.125488 533.096619,1067.054321 
	C532.840454,1077.033447 532.890198,1087.020142 532.489502,1097.046387 
	C530.843079,1097.795654 529.453369,1098.379517 528.251160,1099.228882 
	C515.695923,1108.098755 503.111145,1116.929077 490.667664,1125.953857 
	C485.935120,1129.386230 481.546051,1133.291992 476.683105,1137.173828 
	C461.685944,1141.725464 447.935852,1148.066895 435.006744,1156.626099 
	C438.344147,1108.592896 464.881439,1083.154785 511.664490,1077.460327 
	C511.664490,1059.305176 511.664490,1041.228638 511.664490,1022.822327 
	C503.148560,1023.707031 494.832916,1023.806885 486.868317,1025.529541 
	C450.974976,1033.293091 422.259827,1052.192383 401.688721,1082.742920 
	C387.334778,1104.060181 379.734192,1127.618042 379.962097,1153.553467 
	C380.115723,1171.035400 379.889099,1188.520630 379.493103,1206.047852 
	C355.735687,1222.624878 332.261688,1239.079712 308.913361,1255.711060 
	C276.648254,1278.693726 244.475922,1301.806763 212.267609,1324.869141 
	C195.020111,1337.218994 177.810532,1349.622192 160.528870,1361.924194 
	C142.435989,1374.803711 124.277420,1387.591064 106.147530,1400.418701 
	C98.819412,1386.094849 91.124695,1371.943726 84.272751,1357.395630 
	C78.190552,1344.481812 72.691315,1331.263184 67.563660,1317.937012 
	C59.118256,1295.988647 50.413826,1274.090698 43.234821,1251.717163 
	C35.360588,1227.176880 28.760578,1202.207886 22.262138,1177.254639 
	C19.071926,1165.004395 17.366262,1152.367676 14.939418,1139.475586 
	C38.087578,1122.457520 61.288284,1105.874146 84.481781,1089.280640 
	C115.901382,1066.802124 147.299286,1044.292969 178.737289,1021.840149 
	C200.462082,1006.324585 222.266617,990.920776 243.985992,975.397644 
	C275.957886,952.546936 307.866669,929.607910 339.838440,906.757019 
	C363.986389,889.498108 388.214172,872.350891 412.364746,855.095520 
	C444.204681,832.346313 475.988159,809.518127 507.825500,786.765259 
	C532.109375,769.410278 556.437195,752.116882 580.749023,734.801086 
	C609.516846,714.311523 638.290466,693.829956 667.046387,673.323669 
	C667.707886,672.851929 668.188232,672.126343 668.900146,671.205688 
	C676.360474,674.758423 683.633240,678.703857 690.995239,682.475037 
	C708.364136,691.372070 725.478516,700.843811 743.244080,708.869385 
	C766.128479,719.207336 789.366455,728.832336 812.801208,737.857727 
	C828.621399,743.950684 845.044434,748.478455 861.544800,753.858276 
z"/>
<path fill="#116BAF" opacity="1.000000" stroke="none" 
	d="
M1215.972900,1011.153198 
	C1239.013794,1008.682190 1261.667114,1004.413696 1283.870239,997.598389 
	C1315.619873,987.852905 1345.424683,973.968628 1372.531006,954.900635 
	C1387.242188,944.551941 1401.026001,932.765503 1414.508911,920.816162 
	C1438.130615,899.881104 1456.952393,874.885925 1472.956787,847.808777 
	C1486.149658,825.488220 1496.283691,801.752136 1503.920044,776.961731 
	C1504.307007,775.705811 1504.883057,774.508118 1505.660645,773.061157 
	C1530.397217,781.250061 1554.153809,791.322021 1576.926758,803.536682 
	C1600.895630,816.392700 1623.634033,831.212219 1644.656982,848.783447 
	C1632.618286,857.730957 1620.749390,866.214355 1608.885620,874.704834 
	C1576.664551,897.764343 1544.458496,920.845215 1512.221069,943.881958 
	C1490.775024,959.207092 1469.265747,974.443481 1447.820190,989.769104 
	C1416.395020,1012.226624 1385.017578,1034.750854 1353.589233,1057.203979 
	C1329.036865,1074.744873 1304.415283,1092.188477 1279.865479,1109.732910 
	C1243.043091,1136.048096 1206.235229,1162.383911 1169.475830,1188.786987 
	C1163.463745,1193.105347 1157.731445,1197.813232 1151.561279,1202.188477 
	C1144.010010,1194.698364 1136.895508,1187.228516 1129.489380,1180.059814 
	C1121.780273,1172.597900 1114.288818,1164.777466 1105.816650,1158.266113 
	C1089.047119,1145.377808 1069.874634,1137.483643 1049.046143,1133.496094 
	C1050.437866,1131.750244 1051.604858,1130.086426 1053.163940,1128.970337 
	C1068.393311,1118.068481 1083.713989,1107.294189 1098.959106,1096.414185 
	C1133.763184,1071.575684 1168.567261,1046.737061 1203.292114,1021.788330 
	C1207.759888,1018.578430 1211.757568,1014.714294 1215.972900,1011.153198 
z"/>
<path fill="#1168AC" opacity="1.000000" stroke="none" 
	d="
M1151.869751,1202.340942 
	C1157.731445,1197.813232 1163.463745,1193.105347 1169.475830,1188.786987 
	C1206.235229,1162.383911 1243.043091,1136.048096 1279.865479,1109.732910 
	C1304.415283,1092.188477 1329.036865,1074.744873 1353.589233,1057.203979 
	C1385.017578,1034.750854 1416.395020,1012.226624 1447.820190,989.769104 
	C1469.265747,974.443481 1490.775024,959.207092 1512.221069,943.881958 
	C1544.458496,920.845215 1576.664551,897.764343 1608.885620,874.704834 
	C1620.749390,866.214355 1632.618286,857.730957 1644.797607,849.099060 
	C1651.641479,854.371094 1658.579712,859.373108 1664.618652,865.292542 
	C1676.948608,877.378479 1688.794556,889.958191 1700.620850,902.689209 
	C1698.846191,903.972656 1697.215210,904.796265 1695.745850,905.845947 
	C1666.528687,926.717346 1637.324219,947.606384 1608.130005,968.509949 
	C1585.526978,984.693970 1562.977417,1000.953064 1540.323730,1017.066040 
	C1534.425781,1021.261108 1528.227661,1025.034546 1522.094727,1028.537842 
	C1522.021851,1021.082031 1522.021851,1014.089844 1522.021851,1005.767639 
	C1519.528076,1008.136658 1518.185181,1009.326721 1516.938110,1010.609863 
	C1502.718750,1025.240479 1488.698120,1040.071289 1474.201782,1054.421753 
	C1469.367065,1059.207886 1465.472412,1063.777344 1466.266724,1071.008179 
	C1464.617065,1071.678711 1463.201416,1072.183838 1462.022217,1073.021973 
	C1434.799805,1092.366577 1407.567383,1111.697876 1380.433838,1131.166626 
	C1375.409180,1134.771973 1370.802734,1138.960327 1365.637695,1142.859863 
	C1340.488525,1131.406860 1314.195801,1130.192017 1288.118652,1134.585571 
	C1252.736328,1140.546997 1224.546631,1159.379272 1203.891602,1188.904663 
	C1190.639771,1207.847656 1182.696655,1228.840332 1180.471924,1252.006104 
	C1178.384277,1252.862427 1176.562988,1253.562134 1174.951172,1254.590210 
	C1169.611816,1257.995972 1164.347656,1261.520020 1158.766113,1264.792236 
	C1140.407837,1264.585938 1122.338135,1264.585938 1104.255127,1264.585938 
	C1103.652710,1270.176880 1103.468872,1275.303223 1102.506104,1280.278931 
	C1094.782959,1320.194336 1054.043579,1347.253540 1015.836792,1340.906616 
	C1002.125916,1338.629028 989.678528,1333.532959 979.437744,1324.247314 
	C1004.583740,1306.507568 1029.366455,1288.938843 1054.052368,1271.235229 
	C1055.738647,1270.026123 1056.701294,1267.807617 1058.461670,1265.968994 
	C1070.229980,1265.867676 1081.538818,1265.958130 1092.842041,1265.744995 
	C1094.757080,1265.708862 1097.136108,1264.864990 1098.475464,1263.552246 
	C1116.285156,1246.096191 1133.868042,1228.408081 1151.717651,1210.993652 
	C1155.068970,1207.723999 1155.444336,1205.295776 1151.869751,1202.340942 
z"/>
<path fill="#1263A8" opacity="1.000000" stroke="none" 
	d="
M1522.167480,1029.001587 
	C1528.227661,1025.034546 1534.425781,1021.261108 1540.323730,1017.066040 
	C1562.977417,1000.953064 1585.526978,984.693970 1608.130005,968.509949 
	C1637.324219,947.606384 1666.528687,926.717346 1695.745850,905.845947 
	C1697.215210,904.796265 1698.846191,903.972656 1700.759766,903.002319 
	C1708.434814,912.100464 1715.901001,921.125610 1723.040771,930.401917 
	C1741.954834,954.975708 1756.974976,981.899048 1770.315918,1009.796143 
	C1774.011230,1017.523499 1777.291992,1025.449097 1780.798340,1033.644775 
	C1775.128296,1037.618896 1769.249634,1040.987793 1763.747314,1044.887695 
	C1741.471802,1060.676025 1719.316650,1076.634277 1697.108154,1092.517212 
	C1666.552002,1114.370117 1635.995850,1136.223511 1605.404663,1158.027344 
	C1603.696899,1159.244507 1601.669312,1160.013184 1599.330444,1160.535400 
	C1598.870361,1150.852173 1598.870361,1141.624268 1598.870361,1132.023804 
	C1572.814697,1132.023804 1547.609619,1132.023804 1522.539429,1132.023804 
	C1522.280640,1131.341553 1522.069336,1131.044800 1522.069580,1130.748291 
	C1522.092041,1096.832764 1522.130249,1062.917114 1522.167480,1029.001587 
z"/>
<path fill="#9F4EB0" opacity="1.000000" stroke="none" 
	d="
M315.949768,362.013550 
	C307.549927,367.527740 298.874512,370.708832 288.994354,371.103333 
	C276.444000,371.604492 264.708923,369.669220 254.408722,362.083008 
	C236.685013,349.029358 228.899567,331.798309 231.882889,309.656555 
	C235.704483,281.293304 261.445679,261.210602 290.636475,264.113403 
	C315.231995,266.559204 334.461182,285.457886 338.147705,308.927856 
	C340.870636,326.263367 335.849091,340.937775 325.209442,354.115906 
	C322.765564,357.142853 319.299835,359.344788 315.949768,362.013550 
z"/>
<path fill="#135FA5" opacity="1.000000" stroke="none" 
	d="
M624.497192,1892.228027 
	C618.820129,1889.924316 613.378052,1887.755859 608.255859,1884.994141 
	C583.534851,1871.665039 558.899902,1858.176392 534.243042,1844.114502 
	C536.264343,1842.039795 538.274841,1840.591919 540.290039,1839.150391 
	C571.831909,1816.587769 603.365295,1794.013428 634.919922,1771.468750 
	C657.037537,1755.666748 679.196960,1739.922974 701.314880,1724.121338 
	C732.870239,1701.577515 764.410950,1679.013306 795.945251,1656.440186 
	C816.160217,1641.969604 836.298401,1627.390869 856.591003,1613.030151 
	C862.227417,1609.041260 868.291748,1605.657227 874.274780,1602.400635 
	C874.501221,1604.402588 874.612549,1605.999756 874.719116,1607.528198 
	C879.298889,1607.528198 883.361450,1607.528198 888.057068,1607.528198 
	C888.057068,1597.142700 888.057068,1587.071777 888.425903,1576.995239 
	C890.427002,1576.255981 892.233459,1575.767700 893.665283,1574.751465 
	C914.175903,1560.193726 934.635986,1545.564697 955.468384,1531.194824 
	C955.828552,1556.820312 955.828552,1582.203979 955.828552,1607.489746 
	C961.031189,1607.489746 965.099915,1607.489746 969.553711,1607.489746 
	C969.553711,1605.338379 969.553528,1603.530029 969.553711,1601.721680 
	C969.555725,1580.577881 969.520874,1559.433838 969.596680,1538.290283 
	C969.609070,1534.823242 969.650269,1531.246948 970.458191,1527.910034 
	C975.580566,1506.752075 990.629822,1495.947754 1012.039124,1499.246216 
	C1017.845093,1500.140747 1024.149292,1503.778320 1028.303955,1508.032715 
	C1034.769043,1514.652710 1037.504150,1523.896118 1037.665405,1533.095093 
	C1038.050415,1555.057373 1037.676514,1577.033081 1037.609131,1599.003418 
	C1032.307983,1602.287231 1026.816406,1605.302490 1021.738464,1608.901245 
	C999.550964,1624.625732 977.482666,1640.518188 955.373169,1656.352539 
	C923.284546,1679.333618 891.215759,1702.342407 859.104065,1725.291260 
	C834.546570,1742.841431 809.916260,1760.289917 785.352905,1777.832031 
	C754.045898,1800.190186 722.779785,1822.605713 691.484680,1844.980591 
	C670.034058,1860.317017 648.565857,1875.628906 627.093872,1890.935425 
	C626.422546,1891.414062 625.620605,1891.709351 624.497192,1892.228027 
z"/>
<path fill="#1366AA" opacity="1.000000" stroke="none" 
	d="
M1159.054565,1264.998535 
	C1164.347656,1261.520020 1169.611816,1257.995972 1174.951172,1254.590210 
	C1176.562988,1253.562134 1178.384277,1252.862427 1180.543457,1252.470215 
	C1180.977417,1300.783447 1180.977417,1348.638916 1180.977417,1397.165894 
	C1198.514648,1397.165894 1215.760254,1397.165894 1233.005859,1397.166016 
	C1230.378662,1399.539917 1227.952271,1402.193604 1225.093018,1404.243652 
	C1200.592163,1421.809570 1175.993774,1439.239258 1151.462158,1456.762207 
	C1120.060425,1479.192749 1088.698120,1501.678467 1057.301025,1524.115479 
	C1055.415894,1525.462646 1053.374146,1526.590942 1050.762329,1527.681641 
	C1048.935913,1509.199463 1040.872314,1494.846436 1023.360718,1488.413940 
	C998.573608,1479.309204 978.755676,1487.502808 964.026245,1509.739746 
	C956.158020,1494.280151 944.046631,1486.129272 927.373169,1485.017944 
	C910.997559,1483.926392 898.045593,1490.709351 887.779419,1503.587036 
	C887.487244,1503.251831 887.195007,1502.916748 886.902832,1502.581543 
	C886.902832,1497.837158 886.902832,1493.092773 886.902832,1488.316162 
	C882.580872,1488.316162 878.697205,1488.316162 874.159363,1488.316162 
	C874.159363,1497.751709 874.159363,1506.874268 873.793030,1516.026245 
	C872.104919,1516.726196 870.671326,1517.239746 869.478394,1518.090698 
	C854.089600,1529.066772 838.754822,1540.118286 823.367554,1551.096436 
	C799.205627,1568.334961 774.990051,1585.498291 750.840881,1602.754639 
	C718.731873,1625.698364 686.681274,1648.723999 654.574097,1671.670166 
	C632.990112,1687.095947 611.326233,1702.409668 589.743164,1717.836548 
	C557.772522,1740.687988 525.826660,1763.573975 493.904907,1786.493408 
	C485.854584,1792.273315 477.935822,1798.236328 469.956604,1804.115112 
	C459.363617,1796.638184 448.770660,1789.161133 438.346802,1781.220703 
	C439.975525,1779.664062 441.413330,1778.540161 442.897858,1777.481934 
	C460.319916,1765.063477 477.768280,1752.682007 495.172211,1740.238403 
	C528.896729,1716.125610 562.580444,1691.955933 596.313660,1667.855591 
	C620.874634,1650.308105 645.517273,1632.874756 670.070862,1615.317139 
	C708.381714,1587.921997 746.620056,1560.425659 784.941956,1533.046021 
	C814.224609,1512.124634 843.611267,1491.348999 872.911255,1470.451904 
	C907.745544,1445.607666 942.551697,1420.723877 977.309448,1395.772705 
	C979.478882,1394.215332 981.120483,1391.922485 983.394775,1389.980225 
	C1072.680908,1419.343750 1160.237183,1353.182617 1159.054565,1264.998535 
z"/>
<path fill="#FEFFFF" opacity="1.000000" stroke="none" 
	d="
M1233.403809,1397.096924 
	C1215.760254,1397.165894 1198.514648,1397.165894 1180.977417,1397.165894 
	C1180.977417,1348.638916 1180.977417,1300.783447 1180.905762,1252.464111 
	C1182.696655,1228.840332 1190.639771,1207.847656 1203.891602,1188.904663 
	C1224.546631,1159.379272 1252.736328,1140.546997 1288.118652,1134.585571 
	C1314.195801,1130.192017 1340.488525,1131.406860 1365.950439,1143.024414 
	C1387.728882,1152.664673 1405.326050,1166.592773 1419.759521,1185.017456 
	C1437.917114,1209.390869 1446.067383,1236.613770 1445.858154,1266.536499 
	C1445.796509,1275.357056 1445.983765,1284.179443 1446.057129,1293.000977 
	C1445.985474,1324.450073 1445.913330,1355.899170 1445.843140,1387.348267 
	C1445.836426,1390.323853 1445.842285,1393.299561 1445.842285,1396.637451 
	C1427.377441,1396.637451 1409.183105,1396.637451 1390.391113,1396.637451 
	C1390.391113,1360.721313 1390.391113,1324.814209 1390.400146,1288.007446 
	C1390.554932,1271.498169 1391.407959,1255.870239 1386.237549,1240.684570 
	C1382.333862,1229.219238 1376.639526,1218.619873 1367.948120,1210.496094 
	C1358.201294,1201.385864 1346.996338,1194.303223 1333.592285,1190.521851 
	C1320.658081,1186.873169 1307.719116,1186.452148 1295.300415,1189.578369 
	C1260.460083,1198.349121 1235.426880,1228.375366 1236.022827,1267.628052 
	C1236.632202,1307.758179 1236.150757,1347.904663 1236.162231,1388.044067 
	C1236.162842,1390.035645 1236.309814,1392.027100 1236.388550,1394.018677 
	C1235.526367,1395.021851 1234.664062,1396.024902 1233.403809,1397.096924 
z"/>
<path fill="#FFFFFF" opacity="1.000000" stroke="none" 
	d="
M1522.094727,1028.537842 
	C1522.130249,1062.917114 1522.092041,1096.832764 1522.069580,1130.748291 
	C1522.069336,1131.044800 1522.280640,1131.341553 1522.539429,1132.023804 
	C1547.609619,1132.023804 1572.814697,1132.023804 1598.870361,1132.023804 
	C1598.870361,1141.624268 1598.870361,1150.852173 1598.964355,1160.540771 
	C1599.058228,1169.636108 1599.058228,1178.270874 1599.058228,1187.349365 
	C1573.232544,1187.349365 1547.965332,1187.349365 1522.007446,1187.349365 
	C1522.007446,1189.552612 1522.007568,1191.314331 1522.007446,1193.076172 
	C1522.006104,1216.734253 1521.628418,1240.399902 1522.093750,1264.048706 
	C1522.749146,1297.351440 1538.700439,1321.273315 1568.867920,1334.976807 
	C1578.263062,1339.244507 1588.894897,1340.789307 1599.581543,1343.752808 
	C1599.581543,1360.378784 1599.581543,1378.445557 1599.581543,1396.496460 
	C1551.838745,1399.880493 1478.762817,1360.780762 1467.339478,1280.758057 
	C1466.950684,1248.827026 1466.908081,1217.599731 1466.829834,1186.372437 
	C1466.801147,1174.917114 1466.688110,1163.462036 1466.707886,1151.546387 
	C1466.738403,1124.389893 1466.674683,1097.693848 1466.610840,1070.997803 
	C1465.472412,1063.777344 1469.367065,1059.207886 1474.201782,1054.421753 
	C1488.698120,1040.071289 1502.718750,1025.240479 1516.938110,1010.609863 
	C1518.185181,1009.326721 1519.528076,1008.136658 1522.021851,1005.767639 
	C1522.021851,1014.089844 1522.021851,1021.082031 1522.094727,1028.537842 
z"/>
<path fill="#1366AA" opacity="1.000000" stroke="none" 
	d="
M1236.750000,1394.015869 
	C1236.309814,1392.027100 1236.162842,1390.035645 1236.162231,1388.044067 
	C1236.150757,1347.904663 1236.632202,1307.758179 1236.022827,1267.628052 
	C1235.426880,1228.375366 1260.460083,1198.349121 1295.300415,1189.578369 
	C1307.719116,1186.452148 1320.658081,1186.873169 1333.592285,1190.521851 
	C1346.996338,1194.303223 1358.201294,1201.385864 1367.948120,1210.496094 
	C1376.639526,1218.619873 1382.333862,1229.219238 1386.237549,1240.684570 
	C1391.407959,1255.870239 1390.554932,1271.498169 1390.287842,1287.549072 
	C1385.115601,1290.991089 1379.834229,1293.666260 1375.054321,1297.049683 
	C1355.325073,1311.014771 1335.773926,1325.230957 1316.108276,1339.286255 
	C1291.860474,1356.616089 1267.579468,1373.899414 1243.256714,1391.123657 
	C1241.438232,1392.411499 1239.170410,1393.064819 1236.750000,1394.015869 
z"/>
<path fill="#FDFEFE" opacity="1.000000" stroke="none" 
	d="
M874.159363,1515.996826 
	C874.159363,1506.874268 874.159363,1497.751709 874.159363,1488.316162 
	C878.697205,1488.316162 882.580872,1488.316162 886.902832,1488.316162 
	C886.902832,1493.092773 886.902832,1497.837158 886.902832,1502.581543 
	C887.195007,1502.916748 887.487244,1503.251831 887.779419,1503.587036 
	C898.045593,1490.709351 910.997559,1483.926392 927.373169,1485.017944 
	C944.046631,1486.129272 956.158020,1494.280151 964.026245,1509.739746 
	C978.755676,1487.502808 998.573608,1479.309204 1023.360718,1488.413940 
	C1040.872314,1494.846436 1048.935913,1509.199463 1050.425781,1527.808350 
	C1050.823120,1553.355347 1050.873779,1578.636230 1051.060913,1603.916382 
	C1051.082031,1606.764038 1049.661865,1607.791870 1047.341919,1607.942505 
	C1044.386230,1608.134399 1041.408813,1607.989014 1037.792480,1607.989014 
	C1037.792480,1605.105347 1037.792480,1602.505981 1037.700806,1599.454956 
	C1037.676514,1577.033081 1038.050415,1555.057373 1037.665405,1533.095093 
	C1037.504150,1523.896118 1034.769043,1514.652710 1028.303955,1508.032715 
	C1024.149292,1503.778320 1017.845093,1500.140747 1012.039124,1499.246216 
	C990.629822,1495.947754 975.580566,1506.752075 970.458191,1527.910034 
	C969.650269,1531.246948 969.609070,1534.823242 969.596680,1538.290283 
	C969.520874,1559.433838 969.555725,1580.577881 969.553711,1601.721680 
	C969.553528,1603.530029 969.553711,1605.338379 969.553711,1607.489746 
	C965.099915,1607.489746 961.031189,1607.489746 955.828552,1607.489746 
	C955.828552,1582.203979 955.828552,1556.820312 955.421997,1530.761230 
	C954.253479,1510.454712 942.795837,1498.415649 923.014709,1498.044067 
	C907.771362,1497.757324 891.481567,1511.089966 889.349426,1528.194946 
	C887.346008,1544.267456 888.366943,1560.717041 888.057068,1577.000732 
	C888.057068,1587.071777 888.057068,1597.142700 888.057068,1607.528198 
	C883.361450,1607.528198 879.298889,1607.528198 874.719116,1607.528198 
	C874.612549,1605.999756 874.501221,1604.402588 874.392212,1601.944214 
	C874.315918,1582.388062 874.237305,1563.693115 874.274963,1544.541382 
	C874.313965,1534.722046 874.236633,1525.359375 874.159363,1515.996826 
z"/>
<path fill="#FCFDFE" opacity="1.000000" stroke="none" 
	d="
M1429.034424,1596.339600 
	C1442.589233,1593.639771 1451.859619,1585.235718 1460.240601,1575.219849 
	C1463.624756,1577.879517 1466.730713,1580.320435 1470.239990,1583.078369 
	C1459.245239,1597.592773 1445.855103,1607.805054 1427.545410,1609.901489 
	C1393.619019,1613.786011 1366.698730,1593.603149 1360.652466,1559.794556 
	C1356.374634,1535.873657 1362.514771,1514.837280 1380.674438,1498.509033 
	C1407.831055,1474.091309 1457.876953,1480.747192 1469.842651,1528.168335 
	C1471.807617,1535.955688 1471.865845,1544.223877 1472.888794,1552.985474 
	C1439.356934,1552.985474 1406.836914,1552.985474 1374.392212,1552.985474 
	C1371.415039,1578.789429 1399.978638,1601.332275 1429.034424,1596.339600 
M1419.500000,1540.830444 
	C1432.288086,1540.830444 1445.076050,1540.830444 1457.867554,1540.830444 
	C1457.469604,1520.380859 1442.041626,1497.687988 1416.534180,1497.902466 
	C1391.820679,1498.110474 1374.534424,1519.575317 1374.161255,1540.830444 
	C1388.942993,1540.830444 1403.721436,1540.830444 1419.500000,1540.830444 
z"/>
<path fill="#FCFDFE" opacity="1.000000" stroke="none" 
	d="
M1096.290283,1502.287109 
	C1109.295654,1490.021973 1124.466675,1484.376099 1141.940186,1485.000244 
	C1172.851318,1486.104248 1195.229614,1506.684814 1200.088257,1533.645264 
	C1206.832275,1571.066406 1187.830200,1602.384521 1149.962891,1609.775879 
	C1119.067871,1615.806396 1086.347900,1595.978149 1078.962036,1561.747314 
	C1074.015381,1538.822021 1080.444458,1519.416626 1096.290283,1502.287109 
M1167.340332,1588.933228 
	C1185.560669,1575.200684 1191.089478,1556.604614 1186.373779,1535.127319 
	C1180.435913,1508.084961 1153.007324,1492.611206 1126.082886,1499.661987 
	C1102.416016,1505.859497 1086.109253,1533.451172 1092.370728,1558.710449 
	C1098.774780,1584.544922 1118.568481,1597.118652 1140.157959,1597.755005 
	C1149.538330,1598.031494 1158.747070,1594.898193 1167.340332,1588.933228 
z"/>
<path fill="#FAFCFD" opacity="1.000000" stroke="none" 
	d="
M1507.367920,1630.862061 
	C1515.200195,1633.454102 1522.558838,1632.050659 1527.444458,1626.668091 
	C1533.035889,1620.508057 1536.923706,1612.768433 1541.258301,1605.539307 
	C1541.858643,1604.538086 1541.085571,1602.378662 1540.426392,1601.005981 
	C1523.731934,1566.247559 1506.965454,1531.523682 1490.220093,1496.789795 
	C1488.930664,1494.114990 1487.704468,1491.409790 1486.110352,1487.993164 
	C1490.704346,1487.993164 1494.800659,1487.670532 1498.795532,1488.165894 
	C1500.218994,1488.342529 1501.886475,1490.268799 1502.613647,1491.791992 
	C1516.574463,1521.043213 1530.410278,1550.354248 1544.277710,1579.650146 
	C1545.554199,1582.347046 1546.868530,1585.025879 1548.619263,1588.653564 
	C1549.981567,1586.047119 1551.118408,1584.168335 1551.983643,1582.171997 
	C1564.740356,1552.743164 1577.561890,1523.341675 1590.082397,1493.812622 
	C1591.981812,1489.333252 1594.173950,1487.088013 1599.174683,1487.922729 
	C1601.557861,1488.320679 1604.062378,1487.991211 1607.097778,1487.991211 
	C1600.935181,1502.033081 1595.034790,1515.557373 1589.069824,1529.053345 
	C1576.103149,1558.390259 1563.130859,1587.724731 1550.078735,1617.023682 
	C1548.663818,1620.199341 1546.777954,1623.175537 1544.994507,1626.175171 
	C1532.114624,1647.839111 1509.178345,1649.753296 1488.560181,1636.685425 
	C1490.211060,1633.103760 1491.897339,1629.444946 1493.562500,1625.832275 
	C1498.319946,1627.589478 1502.639282,1629.184814 1507.367920,1630.862061 
z"/>
<path fill="#FDFEFE" opacity="1.000000" stroke="none" 
	d="
M1318.418213,1497.574707 
	C1327.989380,1507.246094 1332.972656,1518.538086 1333.011841,1531.826294 
	C1333.085815,1556.913330 1333.033203,1582.000732 1333.033203,1607.467529 
	C1329.466675,1607.467529 1325.397339,1607.467529 1320.734375,1607.467529 
	C1320.642334,1605.501343 1320.461792,1603.412598 1320.459595,1601.323608 
	C1320.438354,1580.501099 1320.534058,1559.678101 1320.402954,1538.856445 
	C1320.351685,1530.710938 1319.116699,1522.712646 1315.129517,1515.415161 
	C1305.049438,1496.966431 1278.489746,1491.991455 1260.312134,1505.221313 
	C1249.546997,1513.056274 1243.526855,1523.917358 1243.153931,1537.045776 
	C1242.548828,1558.350098 1242.897461,1579.681641 1242.844604,1601.001709 
	C1242.839722,1602.994751 1242.843994,1604.987671 1242.843994,1607.412109 
	C1238.611572,1607.412109 1234.573608,1607.412109 1230.176270,1607.412109 
	C1230.176270,1567.910767 1230.176270,1528.342896 1230.176270,1488.384033 
	C1233.826660,1488.384033 1237.683716,1488.384033 1242.014282,1488.384033 
	C1242.014282,1493.809082 1242.014282,1499.208618 1242.014282,1505.326172 
	C1265.690796,1481.167236 1290.790039,1477.385376 1318.418213,1497.574707 
z"/>
<path fill="#1361A7" opacity="1.000000" stroke="none" 
	d="
M1466.613647,1152.006836 
	C1466.688110,1163.462036 1466.801147,1174.917114 1466.829834,1186.372437 
	C1466.908081,1217.599731 1466.950684,1248.827026 1467.017578,1280.522217 
	C1461.815674,1284.037476 1456.600586,1287.079834 1451.392822,1290.134766 
	C1449.837158,1291.047363 1448.302124,1291.994629 1446.407349,1292.963501 
	C1445.983765,1284.179443 1445.796509,1275.357056 1445.858154,1266.536499 
	C1446.067383,1236.613770 1437.917114,1209.390869 1419.930298,1184.654541 
	C1420.396729,1183.489014 1420.733521,1182.866577 1421.250732,1182.495361 
	C1432.264038,1174.592651 1443.222046,1166.609009 1454.368286,1158.897705 
	C1458.203491,1156.244385 1462.518066,1154.283813 1466.613647,1152.006836 
z"/>
<path fill="#0E7ABB" opacity="1.000000" stroke="none" 
	d="
M477.000427,1136.981934 
	C481.546051,1133.291992 485.935120,1129.386230 490.667664,1125.953857 
	C503.111145,1116.929077 515.695923,1108.098755 528.251160,1099.228882 
	C529.453369,1098.379517 530.843079,1097.795654 532.558105,1097.510376 
	C532.970337,1197.518555 532.970337,1297.104980 532.970337,1396.688965 
	C551.689575,1396.688965 569.764954,1396.688965 588.151550,1396.688965 
	C588.151550,1394.413818 588.151428,1392.436890 588.151550,1390.460083 
	C588.154053,1334.300171 588.154114,1278.140137 588.168518,1221.980225 
	C588.169006,1219.986938 588.311218,1217.993774 588.748413,1215.999512 
	C590.555054,1215.358887 592.090698,1214.867676 593.430237,1214.053589 
	C598.856995,1210.756470 604.223328,1207.359985 609.705444,1204.460449 
	C609.812744,1222.893433 609.686401,1240.868042 609.898132,1258.838379 
	C610.006958,1268.076294 610.059570,1277.395264 611.281433,1286.524536 
	C614.918396,1313.697754 627.424927,1336.835815 646.223511,1356.305908 
	C654.036377,1364.397949 663.904236,1370.505737 672.475830,1377.682983 
	C665.792114,1382.398193 659.485474,1386.968018 653.145447,1391.490967 
	C631.022095,1407.273438 608.872192,1423.018799 586.760071,1438.817139 
	C555.213257,1461.356079 523.701477,1483.944214 492.154572,1506.483032 
	C470.042328,1522.281250 447.876251,1538.004150 425.770416,1553.811279 
	C393.826813,1576.653076 361.901886,1599.520874 329.997620,1622.417480 
	C316.278961,1632.262939 302.631775,1642.208008 288.952118,1652.107788 
	C277.504242,1639.793213 265.968994,1627.558228 254.640213,1615.134888 
	C247.442261,1607.241821 240.316452,1599.259888 233.574493,1590.978882 
	C222.130417,1576.922607 210.533386,1562.949463 199.871658,1548.307129 
	C182.922714,1525.030151 166.222504,1501.541382 150.314545,1477.547363 
	C139.287201,1460.914429 129.668930,1443.339111 119.619728,1426.069336 
	C114.875900,1417.916992 110.598335,1409.493408 106.128510,1400.805664 
	C124.277420,1387.591064 142.435989,1374.803711 160.528870,1361.924194 
	C177.810532,1349.622192 195.020111,1337.218994 212.267609,1324.869141 
	C244.475922,1301.806763 276.648254,1278.693726 308.913361,1255.711060 
	C332.261688,1239.079712 355.735687,1222.624878 379.561493,1206.511841 
	C379.969360,1270.173584 379.969360,1333.414795 379.969360,1396.580322 
	C398.600647,1396.580322 416.628479,1396.580322 434.841431,1396.580322 
	C434.841431,1394.338257 434.841339,1392.515015 434.841431,1390.691895 
	C434.843445,1347.711670 434.834534,1304.731567 434.871002,1261.751343 
	C434.873535,1258.764893 434.934052,1255.730469 435.438751,1252.799561 
	C441.374725,1218.328857 468.357635,1192.206665 503.041626,1187.303101 
	C505.938965,1186.893555 508.885529,1186.832153 511.727020,1186.615479 
	C511.727020,1168.855469 511.727020,1151.602539 511.727020,1133.993774 
	C510.328796,1133.993774 509.182098,1133.902100 508.053925,1134.007935 
	C497.700897,1134.979614 487.351135,1135.985962 477.000427,1136.981934 
z"/>
<path fill="#1168AC" opacity="1.000000" stroke="none" 
	d="
M289.085175,1652.411621 
	C302.631775,1642.208008 316.278961,1632.262939 329.997620,1622.417480 
	C361.901886,1599.520874 393.826813,1576.653076 425.770416,1553.811279 
	C447.876251,1538.004150 470.042328,1522.281250 492.154572,1506.483032 
	C523.701477,1483.944214 555.213257,1461.356079 586.760071,1438.817139 
	C608.872192,1423.018799 631.022095,1407.273438 653.145447,1391.490967 
	C659.485474,1386.968018 665.792114,1382.398193 672.736877,1377.889404 
	C687.910278,1386.076294 703.022461,1392.901245 719.745300,1394.855713 
	C730.491760,1396.111816 741.497620,1397.717773 752.143616,1396.676514 
	C769.078003,1395.020142 785.368713,1390.281006 800.755798,1382.239014 
	C822.130127,1371.067627 839.723450,1356.044678 852.959961,1335.896606 
	C861.629639,1322.699951 867.292908,1308.238647 871.508667,1292.997070 
	C873.614624,1292.128540 875.443420,1291.406128 877.083801,1290.381592 
	C883.070435,1286.642822 888.994202,1282.803467 895.058716,1279.422363 
	C895.504089,1282.082275 895.812683,1284.325073 896.163696,1286.561279 
	C900.891113,1316.674072 914.808655,1341.750854 937.263184,1362.294312 
	C950.702942,1374.590088 966.263367,1383.219727 983.007690,1389.971802 
	C981.120483,1391.922485 979.478882,1394.215332 977.309448,1395.772705 
	C942.551697,1420.723877 907.745544,1445.607666 872.911255,1470.451904 
	C843.611267,1491.348999 814.224609,1512.124634 784.941956,1533.046021 
	C746.620056,1560.425659 708.381714,1587.921997 670.070862,1615.317139 
	C645.517273,1632.874756 620.874634,1650.308105 596.313660,1667.855591 
	C562.580444,1691.955933 528.896729,1716.125610 495.172211,1740.238403 
	C477.768280,1752.682007 460.319916,1765.063477 442.897858,1777.481934 
	C441.413330,1778.540161 439.975525,1779.664062 438.203674,1780.903809 
	C431.815979,1776.751953 425.541626,1772.706299 419.702698,1768.107666 
	C402.889832,1754.866455 386.085907,1741.603271 369.608276,1727.950806 
	C359.470825,1719.551514 349.752960,1710.618774 340.173340,1701.579224 
	C323.058136,1685.429199 306.189758,1669.017578 289.085175,1652.411621 
z"/>
<path fill="#1263A8" opacity="1.000000" stroke="none" 
	d="
M874.158691,1544.998169 
	C874.237305,1563.693115 874.315918,1582.388062 874.277222,1601.539307 
	C868.291748,1605.657227 862.227417,1609.041260 856.591003,1613.030151 
	C836.298401,1627.390869 816.160217,1641.969604 795.945251,1656.440186 
	C764.410950,1679.013306 732.870239,1701.577515 701.314880,1724.121338 
	C679.196960,1739.922974 657.037537,1755.666748 634.919922,1771.468750 
	C603.365295,1794.013428 571.831909,1816.587769 540.290039,1839.150391 
	C538.274841,1840.591919 536.264343,1842.039795 534.101074,1843.796265 
	C524.900696,1838.836426 515.786255,1833.672119 506.826202,1828.252441 
	C501.726807,1825.168213 496.879822,1821.666748 491.903229,1817.727783 
	C493.223267,1815.894165 494.455475,1814.540894 495.911072,1813.500122 
	C513.313416,1801.054565 530.767395,1788.681274 548.171936,1776.238770 
	C579.603821,1753.768433 610.996948,1731.243896 642.434326,1708.781372 
	C662.271118,1694.607666 682.184448,1680.541138 702.018311,1666.363281 
	C733.451355,1643.894287 764.846741,1621.372559 796.257507,1598.872314 
	C816.750000,1584.192749 837.182251,1569.427856 857.774902,1554.890137 
	C862.973267,1551.220459 868.683533,1548.275879 874.158691,1544.998169 
z"/>
<path fill="#1264A9" opacity="1.000000" stroke="none" 
	d="
M874.274902,1544.541382 
	C868.683533,1548.275879 862.973267,1551.220459 857.774902,1554.890137 
	C837.182251,1569.427856 816.750000,1584.192749 796.257507,1598.872314 
	C764.846741,1621.372559 733.451355,1643.894287 702.018311,1666.363281 
	C682.184448,1680.541138 662.271118,1694.607666 642.434326,1708.781372 
	C610.996948,1731.243896 579.603821,1753.768433 548.171936,1776.238770 
	C530.767395,1788.681274 513.313416,1801.054565 495.911072,1813.500122 
	C494.455475,1814.540894 493.223267,1815.894165 491.706207,1817.470337 
	C485.144714,1813.853027 478.766602,1809.863770 472.380585,1805.887329 
	C471.700958,1805.464233 470.975220,1805.115234 470.113770,1804.423462 
	C477.935822,1798.236328 485.854584,1792.273315 493.904907,1786.493408 
	C525.826660,1763.573975 557.772522,1740.687988 589.743164,1717.836548 
	C611.326233,1702.409668 632.990112,1687.095947 654.574097,1671.670166 
	C686.681274,1648.723999 718.731873,1625.698364 750.840881,1602.754639 
	C774.990051,1585.498291 799.205627,1568.334961 823.367554,1551.096436 
	C838.754822,1540.118286 854.089600,1529.066772 869.478394,1518.090698 
	C870.671326,1517.239746 872.104919,1516.726196 873.793030,1516.026245 
	C874.236633,1525.359375 874.313965,1534.722046 874.274902,1544.541382 
z"/>
<path fill="#0E7ABC" opacity="1.000000" stroke="none" 
	d="
M609.611938,1204.000122 
	C604.223328,1207.359985 598.856995,1210.756470 593.430237,1214.053589 
	C592.090698,1214.867676 590.555054,1215.358887 588.654419,1215.539307 
	C588.189758,1161.713379 588.178955,1108.346558 588.179810,1054.979858 
	C588.179810,1053.988525 588.318054,1052.997070 588.391846,1052.005737 
	C591.602966,1050.460205 595.110413,1049.333130 597.977783,1047.302246 
	C618.539490,1032.740112 638.960876,1017.979919 659.446167,1003.309753 
	C690.845398,980.823730 722.244629,958.337708 753.673401,935.893066 
	C775.391541,920.383240 797.183289,904.976440 818.898376,889.462402 
	C841.557678,873.273682 864.147034,856.986938 886.828369,840.829346 
	C888.639526,839.539062 890.928345,838.919373 893.359131,837.977417 
	C903.166626,852.819641 911.592224,868.462219 922.334045,882.307861 
	C933.548035,896.762207 946.624573,909.851379 959.554016,922.875061 
	C976.106445,939.548279 994.992371,953.352661 1015.304932,965.178772 
	C1016.295715,965.755554 1017.180664,966.514099 1018.024780,967.577271 
	C1015.234924,969.892883 1012.532593,971.815735 1009.835754,973.746338 
	C978.427734,996.229980 947.037109,1018.738037 915.607910,1041.192139 
	C891.054688,1058.733643 866.431946,1076.177979 841.880005,1093.721313 
	C810.046326,1116.467651 778.249756,1139.266113 746.441650,1162.048462 
	C726.359863,1176.432007 706.339783,1190.902466 686.179382,1205.174927 
	C679.316528,1210.033447 672.109680,1214.406006 664.969360,1218.539307 
	C664.536743,1189.557129 664.194885,1161.036377 663.852295,1132.460815 
	C645.652527,1132.460815 627.948730,1132.460815 609.835449,1132.460815 
	C609.835449,1134.731567 609.841187,1136.697632 609.834595,1138.663818 
	C609.761536,1160.442627 609.686462,1182.221313 609.611938,1204.000122 
z"/>
<path fill="#0F74B7" opacity="1.000000" stroke="none" 
	d="
M665.059998,1219.000610 
	C672.109680,1214.406006 679.316528,1210.033447 686.179382,1205.174927 
	C706.339783,1190.902466 726.359863,1176.432007 746.441650,1162.048462 
	C778.249756,1139.266113 810.046326,1116.467651 841.880005,1093.721313 
	C866.431946,1076.177979 891.054688,1058.733643 915.607910,1041.192139 
	C947.037109,1018.738037 978.427734,996.229980 1009.835754,973.746338 
	C1012.532593,971.815735 1015.234924,969.892883 1018.308472,967.795715 
	C1022.787903,969.735046 1026.931519,971.774719 1030.993042,973.966553 
	C1057.312866,988.170593 1085.104004,998.524902 1114.328857,1004.682251 
	C1127.985229,1007.559448 1141.920044,1009.244995 1155.796509,1010.902893 
	C1165.788452,1012.096619 1175.891724,1012.862427 1185.946899,1012.879089 
	C1195.667969,1012.895264 1205.391113,1011.708313 1215.543091,1011.101562 
	C1211.757568,1014.714294 1207.759888,1018.578430 1203.292114,1021.788330 
	C1168.567261,1046.737061 1133.763184,1071.575684 1098.959106,1096.414185 
	C1083.713989,1107.294189 1068.393311,1118.068481 1053.163940,1128.970337 
	C1051.604858,1130.086426 1050.437866,1131.750244 1048.624268,1133.568237 
	C1042.059814,1133.651611 1035.959473,1133.050171 1029.860962,1133.069214 
	C1021.612427,1133.095093 1013.304749,1133.070312 1005.130920,1134.010498 
	C990.513062,1135.691772 976.625549,1140.184570 964.029663,1147.872314 
	C955.268250,1153.219727 946.258972,1158.512939 938.613220,1165.251709 
	C927.804932,1174.777954 918.876038,1186.026367 911.587708,1198.758301 
	C900.685913,1217.802002 895.410950,1238.199341 894.110413,1259.789062 
	C893.726990,1266.153564 894.628784,1272.595581 894.941650,1279.002075 
	C888.994202,1282.803467 883.070435,1286.642822 877.083801,1290.381592 
	C875.443420,1291.406128 873.614624,1292.128540 871.444824,1292.584961 
	C871.862244,1284.974365 873.401001,1277.771851 873.438293,1270.561646 
	C873.667664,1226.245850 873.561035,1181.928101 873.548157,1137.611084 
	C873.547668,1135.863037 873.364380,1134.114990 873.275940,1132.540039 
	C854.588684,1132.540039 836.520020,1132.540039 818.153381,1132.540039 
	C818.153381,1134.740601 818.153381,1136.555420 818.153442,1138.370239 
	C818.155823,1180.521362 818.223572,1222.672852 818.081421,1264.823486 
	C818.062622,1270.391113 817.523438,1276.080444 816.290771,1281.500732 
	C807.558350,1319.898926 770.425964,1347.446899 729.808838,1340.866577 
	C695.916992,1335.375610 669.846741,1310.116089 665.375305,1272.913818 
	C663.244629,1255.186279 665.041992,1236.986450 665.059998,1219.000610 
z"/>
<path fill="#FEFFFF" opacity="1.000000" stroke="none" 
	d="
M476.683075,1137.173828 
	C487.351135,1135.985962 497.700897,1134.979614 508.053925,1134.007935 
	C509.182098,1133.902100 510.328796,1133.993774 511.727020,1133.993774 
	C511.727020,1151.602539 511.727020,1168.855469 511.727020,1186.615479 
	C508.885529,1186.832153 505.938965,1186.893555 503.041626,1187.303101 
	C468.357635,1192.206665 441.374725,1218.328857 435.438751,1252.799561 
	C434.934052,1255.730469 434.873535,1258.764893 434.871002,1261.751343 
	C434.834534,1304.731567 434.843445,1347.711670 434.841431,1390.691895 
	C434.841339,1392.515015 434.841431,1394.338257 434.841431,1396.580322 
	C416.628479,1396.580322 398.600647,1396.580322 379.969360,1396.580322 
	C379.969360,1333.414795 379.969360,1270.173584 379.900970,1206.468384 
	C379.889099,1188.520630 380.115723,1171.035400 379.962097,1153.553467 
	C379.734192,1127.618042 387.334778,1104.060181 401.688721,1082.742920 
	C422.259827,1052.192383 450.974976,1033.293091 486.868317,1025.529541 
	C494.832916,1023.806885 503.148560,1023.707031 511.664490,1022.822327 
	C511.664490,1041.228638 511.664490,1059.305176 511.664490,1077.460327 
	C464.881439,1083.154785 438.344147,1108.592896 435.006744,1156.626099 
	C447.935852,1148.066895 461.685944,1141.725464 476.683075,1137.173828 
z"/>
<path fill="#FFFFFF" opacity="1.000000" stroke="none" 
	d="
M588.294800,1051.545898 
	C588.318054,1052.997070 588.179810,1053.988525 588.179810,1054.979858 
	C588.178955,1108.346558 588.189758,1161.713379 588.293396,1215.540283 
	C588.311218,1217.993774 588.169006,1219.986938 588.168518,1221.980225 
	C588.154114,1278.140137 588.154053,1334.300171 588.151550,1390.460083 
	C588.151428,1392.436890 588.151550,1394.413818 588.151550,1396.688965 
	C569.764954,1396.688965 551.689575,1396.688965 532.970337,1396.688965 
	C532.970337,1297.104980 532.970337,1197.518555 532.901794,1097.468262 
	C532.890198,1087.020142 532.840454,1077.033447 533.096619,1067.054321 
	C533.146179,1065.125488 533.866882,1062.709961 535.164978,1061.393433 
	C551.993896,1044.324707 568.982361,1027.413330 585.936584,1010.468323 
	C586.370728,1010.034424 586.872620,1009.668396 588.197754,1008.548035 
	C588.197754,1023.337891 588.197754,1037.211914 588.294800,1051.545898 
z"/>
<path fill="#FEFEFF" opacity="1.000000" stroke="none" 
	d="
M895.058655,1279.422363 
	C894.628784,1272.595581 893.726990,1266.153564 894.110413,1259.789062 
	C895.410950,1238.199341 900.685913,1217.802002 911.587708,1198.758301 
	C918.876038,1186.026367 927.804932,1174.777954 938.613220,1165.251709 
	C946.258972,1158.512939 955.268250,1153.219727 964.029663,1147.872314 
	C976.625549,1140.184570 990.513062,1135.691772 1005.130920,1134.010498 
	C1013.304749,1133.070312 1021.612427,1133.095093 1029.860962,1133.069214 
	C1035.959473,1133.050171 1042.059814,1133.651611 1048.581299,1133.904419 
	C1069.874634,1137.483643 1089.047119,1145.377808 1105.816650,1158.266113 
	C1114.288818,1164.777466 1121.780273,1172.597900 1129.489380,1180.059814 
	C1136.895508,1187.228516 1144.010010,1194.698364 1151.561279,1202.188477 
	C1155.444336,1205.295776 1155.068970,1207.723999 1151.717651,1210.993652 
	C1133.868042,1228.408081 1116.285156,1246.096191 1098.475464,1263.552246 
	C1097.136108,1264.864990 1094.757080,1265.708862 1092.842041,1265.744995 
	C1081.538818,1265.958130 1070.229980,1265.867676 1058.000610,1265.877686 
	C1046.162842,1265.875977 1035.247437,1265.875977 1022.769897,1265.875977 
	C1042.324341,1245.746216 1060.856201,1226.668945 1079.544189,1207.431152 
	C1060.863770,1191.004639 1039.249878,1185.002197 1015.699585,1188.354248 
	C970.564514,1194.778687 938.949463,1240.693848 953.162598,1286.841797 
	C957.813599,1301.942871 966.195923,1314.786011 979.051453,1324.386108 
	C989.678528,1333.532959 1002.125916,1338.629028 1015.836792,1340.906616 
	C1054.043579,1347.253540 1094.782959,1320.194336 1102.506104,1280.278931 
	C1103.468872,1275.303223 1103.652710,1270.176880 1104.255127,1264.585938 
	C1122.338135,1264.585938 1140.407837,1264.585938 1158.766113,1264.792236 
	C1160.237183,1353.182617 1072.680908,1419.343750 983.394775,1389.980225 
	C966.263367,1383.219727 950.702942,1374.590088 937.263184,1362.294312 
	C914.808655,1341.750854 900.891113,1316.674072 896.163696,1286.561279 
	C895.812683,1284.325073 895.504089,1282.082275 895.058655,1279.422363 
z"/>
<path fill="#116BAF" opacity="1.000000" stroke="none" 
	d="
M979.437744,1324.247314 
	C966.195923,1314.786011 957.813599,1301.942871 953.162598,1286.841797 
	C938.949463,1240.693848 970.564514,1194.778687 1015.699585,1188.354248 
	C1039.249878,1185.002197 1060.863770,1191.004639 1079.544189,1207.431152 
	C1060.856201,1226.668945 1042.324341,1245.746216 1022.769897,1265.875977 
	C1035.247437,1265.875977 1046.162842,1265.875977 1057.539307,1265.967285 
	C1056.701294,1267.807617 1055.738647,1270.026123 1054.052368,1271.235229 
	C1029.366455,1288.938843 1004.583740,1306.507568 979.437744,1324.247314 
z"/>
<path fill="#1263A8" opacity="1.000000" stroke="none" 
	d="
M1466.707886,1151.546387 
	C1462.518066,1154.283813 1458.203491,1156.244385 1454.368286,1158.897705 
	C1443.222046,1166.609009 1432.264038,1174.592651 1421.250732,1182.495361 
	C1420.733521,1182.866577 1420.396729,1183.489014 1419.805176,1184.357422 
	C1405.326050,1166.592773 1387.728882,1152.664673 1366.316284,1143.044434 
	C1370.802734,1138.960327 1375.409180,1134.771973 1380.433838,1131.166626 
	C1407.567383,1111.697876 1434.799805,1092.366577 1462.022217,1073.021973 
	C1463.201416,1072.183838 1464.617065,1071.678711 1466.266724,1071.008179 
	C1466.674683,1097.693848 1466.738403,1124.389893 1466.707886,1151.546387 
z"/>
<path fill="#1364A9" opacity="1.000000" stroke="none" 
	d="
M888.425903,1576.995239 
	C888.366943,1560.717041 887.346008,1544.267456 889.349426,1528.194946 
	C891.481567,1511.089966 907.771362,1497.757324 923.014709,1498.044067 
	C942.795837,1498.415649 954.253479,1510.454712 955.061829,1530.519531 
	C934.635986,1545.564697 914.175903,1560.193726 893.665283,1574.751465 
	C892.233459,1575.767700 890.427002,1576.255981 888.425903,1576.995239 
z"/>
<path fill="#15599F" opacity="1.000000" stroke="none" 
	d="
M1419.000000,1540.830444 
	C1403.721436,1540.830444 1388.942993,1540.830444 1374.161255,1540.830444 
	C1374.534424,1519.575317 1391.820679,1498.110474 1416.534180,1497.902466 
	C1442.041626,1497.687988 1457.469604,1520.380859 1457.867554,1540.830444 
	C1445.076050,1540.830444 1432.288086,1540.830444 1419.000000,1540.830444 
z"/>
<path fill="#145CA2" opacity="1.000000" stroke="none" 
	d="
M1167.032959,1589.122314 
	C1158.747070,1594.898193 1149.538330,1598.031494 1140.157959,1597.755005 
	C1118.568481,1597.118652 1098.774780,1584.544922 1092.370728,1558.710449 
	C1086.109253,1533.451172 1102.416016,1505.859497 1126.082886,1499.661987 
	C1153.007324,1492.611206 1180.435913,1508.084961 1186.373779,1535.127319 
	C1191.089478,1556.604614 1185.560669,1575.200684 1167.032959,1589.122314 
z"/>
<path fill="#FEFFFF" opacity="1.000000" stroke="none" 
	d="
M664.969360,1218.539307 
	C665.041992,1236.986450 663.244629,1255.186279 665.375305,1272.913818 
	C669.846741,1310.116089 695.916992,1335.375610 729.808838,1340.866577 
	C770.425964,1347.446899 807.558350,1319.898926 816.290771,1281.500732 
	C817.523438,1276.080444 818.062622,1270.391113 818.081421,1264.823486 
	C818.223572,1222.672852 818.155823,1180.521362 818.153442,1138.370239 
	C818.153381,1136.555420 818.153381,1134.740601 818.153381,1132.540039 
	C836.520020,1132.540039 854.588684,1132.540039 873.275940,1132.540039 
	C873.364380,1134.114990 873.547668,1135.863037 873.548157,1137.611084 
	C873.561035,1181.928101 873.667664,1226.245850 873.438293,1270.561646 
	C873.401001,1277.771851 871.862244,1284.974365 871.081299,1292.592529 
	C867.292908,1308.238647 861.629639,1322.699951 852.959961,1335.896606 
	C839.723450,1356.044678 822.130127,1371.067627 800.755798,1382.239014 
	C785.368713,1390.281006 769.078003,1395.020142 752.143616,1396.676514 
	C741.497620,1397.717773 730.491760,1396.111816 719.745300,1394.855713 
	C703.022461,1392.901245 687.910278,1386.076294 673.098633,1377.722412 
	C663.904236,1370.505737 654.036377,1364.397949 646.223511,1356.305908 
	C627.424927,1336.835815 614.918396,1313.697754 611.281433,1286.524536 
	C610.059570,1277.395264 610.006958,1268.076294 609.898132,1258.838379 
	C609.686401,1240.868042 609.812744,1222.893433 609.705444,1204.460449 
	C609.686462,1182.221313 609.761536,1160.442627 609.834595,1138.663818 
	C609.841187,1136.697632 609.835449,1134.731567 609.835449,1132.460815 
	C627.948730,1132.460815 645.652527,1132.460815 663.852295,1132.460815 
	C664.194885,1161.036377 664.536743,1189.557129 664.969360,1218.539307 
z"/>
</svg>